<svg width="17" height="17" viewBox="0 0 17 17" fill="none" xmlns="http://www.w3.org/2000/svg">
<path d="M4.61048 4.605C5.75595 3.86066 7.08324 3.30762 8.4999 3.30762C11.7191 3.30762 14.4769 6.16342 15.6884 7.63027C15.8797 7.86879 15.9856 8.17868 15.9856 8.49999C15.9856 8.82131 15.8797 9.13119 15.6884 9.36972C15.0205 10.1783 13.8829 11.4089 12.4572 12.3505M10.2307 13.4265C9.67408 13.5948 9.09487 13.6923 8.4999 13.6923C5.28067 13.6923 2.52298 10.8366 1.31144 9.36972C1.12008 9.13119 1.01416 8.82131 1.01416 8.49999C1.01416 8.17868 1.12008 7.86879 1.31144 7.63027C1.69529 7.16553 2.23434 6.56136 2.89411 5.95277" stroke="black" stroke-linecap="round" stroke-linejoin="round"/>
<path d="M10.1317 10.1319C11.0329 9.23064 11.0329 7.76949 10.1317 6.86828C9.23051 5.96708 7.76938 5.96708 6.86816 6.86828" stroke="black" stroke-linecap="round" stroke-linejoin="round"/>
<path d="M16 16L1 1" stroke="black" stroke-linecap="round" stroke-linejoin="round"/>
</svg>
