<svg width="current" height="current" viewBox="0 0 22 22" fill="none" xmlns="http://www.w3.org/2000/svg">
<path d="M11.7692 1H4.07692C3.66889 1 3.27758 1.16209 2.98906 1.4506C2.70055 1.73912 2.53846 2.13043 2.53846 2.53846V16.3846L1 21L7.15385 19.4615H19.4615C19.8695 19.4615 20.2609 19.2994 20.5494 19.0109C20.8378 18.7225 21 18.3311 21 17.9231V10.2308" stroke="current" stroke-width="1.5" stroke-linecap="round" stroke-linejoin="round"/>
<path d="M13.0973 12.7486L8.48193 13.5793L9.25116 8.9024L16.5281 1.65625C16.6711 1.51205 16.8412 1.39759 17.0288 1.31949C17.2161 1.24138 17.4172 1.20117 17.6205 1.20117C17.8235 1.20117 18.0246 1.24138 18.212 1.31949C18.3995 1.39759 18.5697 1.51205 18.7128 1.65625L20.3435 3.28701C20.4877 3.43003 20.6021 3.6002 20.6803 3.78767C20.7583 3.97514 20.7986 4.17623 20.7986 4.37932C20.7986 4.58241 20.7583 4.7835 20.6803 4.97098C20.6021 5.15846 20.4877 5.32861 20.3435 5.47163L13.0973 12.7486Z" stroke="current" stroke-width="1.5" stroke-linecap="round" stroke-linejoin="round"/>
</svg>
