<svg width="17" height="17" viewBox="0 0 17 17" fill="none" xmlns="http://www.w3.org/2000/svg">
<path d="M16.065 7.58478C16.2663 7.8358 16.3778 8.16192 16.3778 8.50006C16.3778 8.83821 16.2663 9.16433 16.065 9.41534C14.79 10.959 11.8878 13.9644 8.49992 13.9644C5.11206 13.9644 2.20992 10.959 0.934918 9.41534C0.733541 9.16433 0.62207 8.83821 0.62207 8.50006C0.62207 8.16192 0.733541 7.8358 0.934918 7.58478C2.20992 6.0411 5.11206 3.03571 8.49992 3.03571C11.8878 3.03571 14.79 6.0411 16.065 7.58478Z" stroke="#0065FF" stroke-linecap="round" stroke-linejoin="round"/>
<path d="M8.49986 10.9286C9.84112 10.9286 10.9284 9.84125 10.9284 8.49998C10.9284 7.15872 9.84112 6.07141 8.49986 6.07141C7.1586 6.07141 6.07129 7.15872 6.07129 8.49998C6.07129 9.84125 7.1586 10.9286 8.49986 10.9286Z" stroke="#0065FF" stroke-linecap="round" stroke-linejoin="round"/>
</svg>
