<svg width="current" height="current" viewBox="0 0 22 22" fill="none" xmlns="http://www.w3.org/2000/svg">
<path d="M20.46 21H12" stroke="current" stroke-opacity="1" stroke-width="1.5" stroke-linecap="round" stroke-linejoin="round"/>
<path d="M20.4615 2H12" stroke="current" stroke-opacity="1" stroke-width="1.5" stroke-linecap="round" stroke-linejoin="round"/>
<path d="M20.4615 7H12" stroke="current" stroke-opacity="1" stroke-width="1.5" stroke-linecap="round" stroke-linejoin="round"/>
<path d="M20.4615 12H12" stroke="current" stroke-opacity="1" stroke-width="1.5" stroke-linecap="round" stroke-linejoin="round"/>
<path d="M20.4615 17H12" stroke="current" stroke-opacity="1" stroke-width="1.5" stroke-linecap="round" stroke-linejoin="round"/>
<path d="M1 1.83333V8.49993C1 8.96016 1.3444 9.33326 1.76923 9.33326H7.92307C8.3479 9.33326 8.6923 8.96016 8.6923 8.49993V1.83333C8.6923 1.3731 8.3479 1 7.92307 1H1.76923C1.3444 1 1 1.3731 1 1.83333Z" stroke="current" stroke-opacity="1" stroke-width="1.5" stroke-linecap="round" stroke-linejoin="round"/>
<path d="M1 13.5013V20.1679C1 20.6281 1.3444 21.0012 1.76923 21.0012H7.92307C8.3479 21.0012 8.6923 20.6281 8.6923 20.1679V13.5013C8.6923 13.0411 8.3479 12.668 7.92307 12.668H1.76923C1.3444 12.668 1 13.0411 1 13.5013Z" stroke="current" stroke-opacity="1" stroke-width="1.5" stroke-linecap="round" stroke-linejoin="round"/>
</svg>
