<svg width="15" height="14" viewBox="0 0 15 14" fill="none"
    xmlns="http://www.w3.org/2000/svg">
    <g clip-path="url(#clip0_1209_88)">
        <path d="M3.71273 3.6244C4.72855 2.9793 5.90562 2.5 7.16194 2.5C10.0168 2.5 12.4624 4.97503 13.5368 6.2463C13.7065 6.45302 13.8004 6.72159 13.8004 7.00006C13.8004 7.27853 13.7065 7.5471 13.5368 7.75382C12.9446 8.45457 11.9357 9.52108 10.6713 10.3372M8.69682 11.2697C8.20322 11.4156 7.68957 11.5001 7.16194 11.5001C4.30706 11.5001 1.86149 9.02509 0.787068 7.75382C0.617371 7.5471 0.523438 7.27853 0.523438 7.00006C0.523438 6.72159 0.617371 6.45302 0.787068 6.2463C1.12748 5.84352 1.60552 5.31991 2.19062 4.79247" stroke="#9C9C9C" stroke-linecap="round" stroke-linejoin="round"/>
        <path d="M8.60903 8.41421C9.40825 7.63316 9.40825 6.36683 8.60903 5.58578C7.80982 4.80474 6.51406 4.80474 5.71484 5.58578" stroke="#9C9C9C" stroke-linecap="round" stroke-linejoin="round"/>
        <path d="M13.814 13.5L0.511719 0.5" stroke="#9C9C9C" stroke-linecap="round" stroke-linejoin="round"/>
    </g>
    <defs>
        <clipPath id="clip0_1209_88">
            <rect width="14.3255" height="14" fill="white"/>
        </clipPath>
    </defs>
</svg>