<svg width="15" height="14" viewBox="0 0 15 14" fill="none"
    xmlns="http://www.w3.org/2000/svg">
    <g clip-path="url(#clip0_1209_64)">
        <path d="M14.2107 6.2463C14.3803 6.45302 14.4743 6.72159 14.4743 7.00006C14.4743 7.27853 14.3803 7.5471 14.2107 7.75382C13.1363 9.02509 10.6906 11.5001 7.83577 11.5001C4.98089 11.5001 2.53531 9.02509 1.4609 7.75382C1.2912 7.5471 1.19727 7.27853 1.19727 7.00006C1.19727 6.72159 1.2912 6.45302 1.4609 6.2463C2.53531 4.97503 4.98089 2.5 7.83577 2.5C10.6906 2.5 13.1363 4.97503 14.2107 6.2463Z" stroke="#FFA900" stroke-linecap="round" stroke-linejoin="round"/>
        <path d="M7.83557 9C8.96582 9 9.88208 8.10457 9.88208 7C9.88208 5.89543 8.96582 5 7.83557 5C6.70531 5 5.78906 5.89543 5.78906 7C5.78906 8.10457 6.70531 9 7.83557 9Z" stroke="#FFA900" stroke-linecap="round" stroke-linejoin="round"/>
    </g>
    <defs>
        <clipPath id="clip0_1209_64">
            <rect width="14.3255" height="14" fill="white" transform="translate(0.673828)"/>
        </clipPath>
    </defs>
</svg>
    