<svg width="current" height="current" viewBox="0 0 22 22" fill="none" xmlns="http://www.w3.org/2000/svg">
<path d="M21 10.9077C21.0015 10.6942 20.9584 10.4826 20.8737 10.2866C20.7889 10.0906 20.6643 9.91443 20.5077 9.76923L11 1L1.49234 9.76923C1.33577 9.91443 1.21113 10.0906 1.12637 10.2866C1.04162 10.4826 0.998591 10.6942 1.00004 10.9077V19.4615C1.00004 19.8695 1.16212 20.2609 1.45064 20.5494C1.73916 20.8378 2.13047 21 2.53849 21H19.4615C19.8695 21 20.2609 20.8378 20.5493 20.5494C20.838 20.2609 21 19.8695 21 19.4615V10.9077Z" stroke="current" stroke-opacity="1" stroke-width="1.5" stroke-linecap="round" stroke-linejoin="round"/>
<path d="M11 20.9995V14.8457" stroke="current" stroke-opacity="1" stroke-width="1.5" stroke-linecap="round" stroke-linejoin="round"/>
</svg>
