<?xml version="1.0" standalone="no"?>
<!DOCTYPE svg PUBLIC "-//W3C//DTD SVG 20010904//EN"
 "http://www.w3.org/TR/2001/REC-SVG-20010904/DTD/svg10.dtd">
<svg version="1.0" xmlns="http://www.w3.org/2000/svg"
 width="512.000000pt" height="512.000000pt" viewBox="0 0 512.000000 512.000000"
 preserveAspectRatio="xMidYMid meet">

<g transform="translate(0.000000,512.000000) scale(0.100000,-0.100000)"
fill="none" stroke="current" stroke-opacity="1" stroke-width="270" stroke-linecap="round" stroke-linejoin="round">
<path d="M230 2731 c0 -1198 4 -1877 10 -1911 22 -115 90 -202 200 -254 l65
-31 2055 0 2055 0 65 31 c110 52 178 139 200 254 6 34 10 616 10 1621 l0 1569
-175 0 -175 0 0 -1488 c0 -1405 1 -1490 17 -1505 10 -8 32 -18 48 -22 71 -15
105 -53 105 -114 0 -90 -69 -130 -181 -106 -77 17 -147 72 -187 149 l-27 51
-3 1808 -2 1807 -2040 0 -2040 0 0 -1859z m3559 1373 c37 -22 52 -49 53 -94 1
-52 -32 -96 -80 -110 -41 -11 -2915 -15 -2971 -4 -18 4 -45 20 -62 36 -23 24
-29 38 -29 75 0 38 5 50 34 79 l34 34 1497 0 c1361 0 1499 -1 1524 -16z
m-1730 -594 c20 -20 32 -44 36 -73 3 -23 5 -305 3 -627 l-3 -585 -23 -32 c-15
-21 -37 -36 -62 -43 -26 -7 -240 -10 -637 -8 -538 3 -600 5 -621 20 -59 41
-57 12 -60 633 -2 314 0 595 3 624 6 44 14 62 40 88 l33 33 630 0 630 0 31
-30z m1749 0 c29 -29 40 -64 34 -107 -5 -32 -55 -79 -93 -87 -41 -8 -1167 -8
-1208 0 -38 8 -88 55 -93 87 -6 43 5 78 34 107 l30 30 633 0 633 0 30 -30z
m-65 -547 c23 -3 50 -18 68 -35 24 -25 29 -38 29 -78 0 -40 -5 -53 -29 -78
-17 -16 -44 -32 -62 -36 -41 -8 -1167 -8 -1208 0 -18 4 -45 20 -62 36 -24 25
-29 38 -29 78 0 41 5 53 30 79 17 16 43 32 58 34 45 7 1164 7 1205 0z m6 -579
c18 -4 45 -20 62 -36 24 -25 29 -38 29 -78 0 -40 -5 -53 -29 -78 -18 -17 -45
-32 -68 -35 -50 -9 -1146 -9 -1196 0 -23 3 -50 18 -68 35 -24 25 -29 38 -29
78 0 41 5 53 30 79 17 16 40 32 53 34 36 7 1182 8 1216 1z m-1737 -584 c82
-23 108 -128 47 -189 l-31 -31 -630 0 -630 0 -34 34 c-29 29 -34 41 -34 79 0
37 6 51 30 76 17 16 40 32 53 34 50 10 1193 7 1229 -3z m1737 4 c38 -8 88 -55
93 -87 6 -43 -5 -78 -34 -107 l-30 -30 -633 0 -633 0 -30 30 c-29 29 -40 64
-34 107 4 29 55 80 85 86 36 7 1182 8 1216 1z m-1730 -587 c65 -23 94 -101 61
-162 -30 -56 -16 -55 -691 -55 l-621 0 -34 34 c-29 29 -34 41 -34 79 0 37 6
51 30 76 17 16 40 32 53 34 12 2 288 5 612 5 433 1 599 -2 624 -11z m1743 3
c67 -19 103 -110 67 -168 -33 -53 -18 -52 -684 -52 -666 0 -651 -1 -684 52
-35 56 0 149 62 167 45 13 1192 14 1239 1z"/>
<path d="M930 2840 l0 -470 465 0 465 0 0 470 0 470 -465 0 -465 0 0 -470z"/>
</g>
</svg>
