<svg width="current" height="current" viewBox="0 0 15 15" fill="none" xmlns="http://www.w3.org/2000/svg">
  <path d="M5.11328 5.60742C6.49399 5.60742 7.61328 4.48813 7.61328 3.10742C7.61328 1.72671 6.49399 0.607422 5.11328 0.607422C3.73257 0.607422 2.61328 1.72671 2.61328 3.10742C2.61328 4.48813 3.73257 5.60742 5.11328 5.60742Z" stroke="current" stroke-width="1.5" stroke-linecap="round" stroke-linejoin="round"/>
  <path d="M6.61328 12.6074H0.613281V12.0653C0.621242 11.3031 0.822258 10.5553 1.19755 9.8919C1.57285 9.22844 2.11018 8.67093 2.75935 8.27143C3.40853 7.87194 4.14837 7.6435 4.90976 7.60746C5.67116 7.57141 6.42927 7.72894 7.11328 8.06531" stroke="current" stroke-width="1.5" stroke-linecap="round" stroke-linejoin="round"/>
  <path d="M10.6133 7.60742V13.6074" stroke="current" stroke-width="1.5" stroke-linecap="round" stroke-linejoin="round"/>
  <path d="M7.61328 10.6074H13.6133" stroke="current" stroke-width="1.5" stroke-linecap="round" stroke-linejoin="round"/>
</svg>
