<svg width="current" height="current" viewBox="0 0 22 22" fill="none" xmlns="http://www.w3.org/2000/svg">
<path d="M9.17148 17.1546L12.5246 20.49C12.7303 20.7006 12.9876 20.854 13.2708 20.9349C13.5541 21.0158 13.8536 21.0214 14.1397 20.9511C14.4275 20.8842 14.6933 20.7445 14.9115 20.5452C15.1297 20.346 15.293 20.0942 15.3855 19.8137L20.892 3.32117C21.007 3.01215 21.0307 2.67666 20.9604 2.35457C20.89 2.03246 20.7287 1.73732 20.4954 1.50421C20.2622 1.2711 19.9668 1.10983 19.6445 1.03956C19.3221 0.969292 18.9864 0.992986 18.6772 1.10783L2.17297 6.61045C1.88264 6.70954 1.62407 6.88432 1.42397 7.11671C1.22386 7.34909 1.08949 7.63066 1.03474 7.93231C0.978233 8.20666 0.990812 8.49074 1.07136 8.75903C1.1519 9.02731 1.29788 9.2714 1.49619 9.46935L5.71068 13.6809L5.57224 19.0145L9.17148 17.1546Z" stroke="current" stroke-opacity="1" stroke-width="1.5" stroke-linecap="round" stroke-linejoin="round"/>
<path d="M20.3999 1.44629L5.71069 13.6812" stroke="current" stroke-opacity="1" stroke-width="1.5" stroke-linecap="round" stroke-linejoin="round"/>
</svg>
