<svg width="22" height="22" viewBox="0 0 22 22" fill="none" xmlns="http://www.w3.org/2000/svg">
<path d="M8.03414 3.69328L8.75465 1.98559C8.87617 1.69646 9.08996 1.44776 9.36801 1.27207C9.64608 1.09638 9.97544 1.00189 10.313 1.00098H11.687C12.0245 1.00189 12.3539 1.09638 12.6319 1.27207C12.91 1.44776 13.1238 1.69646 13.2453 1.98559L13.9658 3.69328L16.4122 4.98559L18.3894 4.70867C18.7186 4.66764 19.0538 4.71739 19.3522 4.85162C19.6505 4.98585 19.8986 5.19848 20.065 5.46252L20.7353 6.53944C20.907 6.80767 20.9863 7.11741 20.9623 7.42778C20.9383 7.73815 20.8125 8.03456 20.6012 8.2779L19.378 9.70867V12.2933L20.6347 13.7241C20.846 13.9674 20.9719 14.2638 20.9958 14.5742C21.0198 14.8845 20.9405 15.1943 20.7688 15.4625L20.0985 16.5394C19.9321 16.8034 19.684 17.0161 19.3857 17.1504C19.0873 17.2845 18.7522 17.3344 18.4229 17.2933L16.4457 17.0164L13.9993 18.3087L13.2788 20.0164C13.1573 20.3054 12.9435 20.5542 12.6655 20.7299C12.3874 20.9056 12.058 21.0001 11.7205 21.001H10.313C9.97544 21.0001 9.64608 20.9056 9.36801 20.7299C9.08996 20.5542 8.87617 20.3054 8.75465 20.0164L8.03414 18.3087L5.58774 17.0164L3.61051 17.2933C3.28128 17.3344 2.94619 17.2845 2.64783 17.1504C2.34949 17.0161 2.10133 16.8034 1.93489 16.5394L1.26464 15.4625C1.09289 15.1943 1.01377 14.8845 1.0377 14.5742C1.06162 14.2638 1.1875 13.9674 1.39869 13.7241L2.62189 12.2933V9.70867L1.36518 8.2779C1.15398 8.03456 1.02811 7.73815 1.00418 7.42778C0.980256 7.11741 1.05938 6.80767 1.23113 6.53944L1.90138 5.46252C2.06782 5.19848 2.31597 4.98585 2.61432 4.85162C2.91268 4.71739 3.24777 4.66764 3.57699 4.70867L5.55422 4.98559L8.03414 3.69328ZM7.64875 11.001C7.64875 11.6095 7.8453 12.2044 8.21353 12.7104C8.58178 13.2164 9.10516 13.6108 9.71751 13.8437C10.3299 14.0766 11.0037 14.1375 11.6538 14.0188C12.3038 13.9001 12.901 13.607 13.3697 13.1767C13.8383 12.7464 14.1575 12.1981 14.2868 11.6013C14.4161 11.0044 14.3498 10.3857 14.0961 9.82348C13.8425 9.26125 13.4129 8.7807 12.8618 8.44261C12.3107 8.10452 11.6628 7.92405 11 7.92405C10.1112 7.92405 9.25878 8.24822 8.63031 8.82527C8.00183 9.4023 7.64875 10.1849 7.64875 11.001Z" stroke="black" stroke-opacity="0.4" stroke-width="1.5" stroke-linecap="round" stroke-linejoin="round"/>
</svg>
